
<svg width="32" height="32" viewBox="0 0 32 32" fill="none" xmlns="http://www.w3.org/2000/svg">
  <!-- Background with gradient -->
  <rect width="32" height="32" rx="8" fill="url(#paint0_linear)"/>
  
  <!-- Fashion icon: stylized hanger -->
  <path d="M7 7C7 6.44772 7.44772 6 8 6H24C24.5523 6 25 6.44772 25 7V10H20L16 14L12 10H7V7Z" fill="#9575DE"/>
  <path d="M7 10H12L16 14L20 10H25V25C25 25.5523 24.5523 26 24 26H8C7.44772 26 7 25.5523 7 25V10Z" fill="white"/>
  
  <!-- Stylish detail -->
  <circle cx="16" cy="18" r="3" fill="#9575DE" fillOpacity="0.2"/>
  <circle cx="16" cy="18" r="1.5" fill="#9575DE"/>

  <!-- Gradient definition -->
  <defs>
    <linearGradient id="paint0_linear" x1="0" y1="0" x2="32" y2="32" gradientUnits="userSpaceOnUse">
      <stop stopColor="#9b87f5"/>
      <stop offset="1" stopColor="#7E69AB"/>
    </linearGradient>
  </defs>
</svg>
