
<svg width="240" height="48" viewBox="0 0 240 48" fill="none" xmlns="http://www.w3.org/2000/svg">
  <!-- Background with gradient -->
  <path d="M42 8C42 3.58172 45.5817 0 50 0H190C194.418 0 198 3.58172 198 8V40C198 44.4183 194.418 48 190 48H50C45.5817 48 42 44.4183 42 40V8Z" fill="url(#paint0_linear)" fillOpacity="0.9"/>
  
  <!-- Fashion icon: stylized hanger -->
  <path d="M11 15C11 14.4477 11.4477 14 12 14H28C28.5523 14 29 14.4477 29 15V18H24L20 22L16 18H11V15Z" fill="#9575DE"/>
  <path d="M11 18H16L20 22L24 18H29V33C29 33.5523 28.5523 34 28 34H12C11.4477 34 11 33.5523 11 33V18Z" fill="white"/>
  
  <!-- Stylish details -->
  <circle cx="20" cy="26" r="4" fill="#9575DE" fillOpacity="0.2"/>
  <circle cx="20" cy="26" r="2" fill="#9575DE"/>
  
  <!-- Text: Celebrity -->
  <path d="M59.5703 35V19.8281H65.3047C66.8828 19.8281 68.1953 20.125 69.2422 20.7188C70.2891 21.3125 71.0781 22.1562 71.6094 23.25C72.1406 24.3438 72.4062 25.5938 72.4062 27C72.4062 28.4062 72.1406 29.6562 71.6094 30.75C71.0781 31.8438 70.2891 32.6875 69.2422 33.2812C68.1953 33.875 66.8828 34.1719 65.3047 34.1719H61.4062V31.9375H65.2266C66.2734 31.9375 67.1172 31.75 67.7578 31.375C68.3984 31 68.875 30.4375 69.1875 29.6875C69.5078 28.9375 69.6719 28.0469 69.6719 27.0156C69.6719 25.9844 69.5078 25.0938 69.1875 24.3438C68.875 23.5938 68.3984 23.0312 67.7578 22.6562C67.1172 22.2812 66.2812 22.0938 65.25 22.0938H62.3281V35H59.5703Z" fill="white"/>
  
  <path d="M79.6094 35.2344C78.4219 35.2344 77.3828 34.9688 76.4922 34.4375C75.6016 33.8984 74.9141 33.1406 74.4297 32.1562C73.9453 31.1641 73.7031 30.0156 73.7031 28.7031C73.7031 27.3906 73.9453 26.2422 74.4297 25.25C74.9141 24.2578 75.6016 23.5 76.4922 22.9688C77.3828 22.4297 78.4219 22.1602 79.6094 22.1602C80.7969 22.1602 81.8359 22.4297 82.7266 22.9688C83.625 23.5 84.3125 24.2578 84.7891 25.25C85.2734 26.2422 85.5156 27.3906 85.5156 28.7031C85.5156 30.0156 85.2734 31.1641 84.7891 32.1562C84.3125 33.1406 83.625 33.8984 82.7266 34.4375C81.8359 34.9688 80.7969 35.2344 79.6094 35.2344ZM79.6094 32.9766C80.2813 32.9766 80.8594 32.8125 81.3438 32.4844C81.8359 32.1484 82.2188 31.6562 82.4922 31.0078C82.7656 30.3516 82.9023 29.5859 82.9023 28.7109C82.9023 27.8359 82.7656 27.0703 82.4922 26.4141C82.2188 25.7578 81.8359 25.2656 81.3438 24.9375C80.8594 24.6094 80.2813 24.4453 79.6094 24.4453C78.9375 24.4453 78.3594 24.6094 77.875 24.9375C77.3906 25.2656 77.0078 25.7578 76.7266 26.4141C76.4531 27.0703 76.3164 27.8359 76.3164 28.7109C76.3164 29.5859 76.4531 30.3516 76.7266 31.0078C77.0078 31.6562 77.3906 32.1484 77.875 32.4844C78.3594 32.8125 78.9375 32.9766 79.6094 32.9766Z" fill="white"/>
  
  <path d="M87.6562 35V22.3086H90.0938V24.375H90.2266C90.4844 23.6641 90.9062 23.1172 91.4922 22.7344C92.0781 22.3516 92.7734 22.1602 93.5781 22.1602C94.3906 22.1602 95.0781 22.3516 95.6406 22.7344C96.2109 23.1172 96.5938 23.6641 96.7891 24.375H96.9062C97.1641 23.6875 97.6328 23.1484 98.3125 22.7578C99 22.3594 99.8047 22.1602 100.727 22.1602C101.898 22.1602 102.82 22.5156 103.492 23.2266C104.172 23.9297 104.512 24.9688 104.512 26.3438V35H101.945V26.8281C101.945 26.0234 101.734 25.4375 101.312 25.0703C100.891 24.7031 100.383 24.5195 99.7891 24.5195C99.0781 24.5195 98.5234 24.7422 98.125 25.1875C97.7266 25.625 97.5273 26.1953 97.5273 26.8984V35H94.9766V26.6953C94.9766 26.0391 94.7734 25.5078 94.3672 25.1016C93.9609 24.6953 93.4531 24.4922 92.8438 24.4922C92.4219 24.4922 92.0312 24.6055 91.6719 24.832C91.3203 25.0508 91.0391 25.3594 90.8281 25.7578C90.625 26.1484 90.5234 26.6016 90.5234 27.1172V35H87.6562Z" fill="white"/>
  
  <path d="M114.75 35.2344C113.578 35.2344 112.547 34.9766 111.656 34.4609C110.766 33.9375 110.066 33.1875 109.555 32.2109C109.055 31.2266 108.805 30.0625 108.805 28.7188C108.805 27.3906 109.059 26.2344 109.566 25.25C110.082 24.2578 110.781 23.5078 111.664 23C112.547 22.4844 113.555 22.2266 114.688 22.2266C115.5 22.2266 116.238 22.375 116.902 22.6719C117.566 22.9609 118.109 23.3594 118.531 23.8672C118.961 24.375 119.227 24.9609 119.328 25.625H118.078C117.93 25.1016 117.594 24.6523 117.07 24.2773C116.555 23.8945 115.891 23.7031 115.078 23.7031C114.328 23.7031 113.656 23.8984 113.062 24.2891C112.477 24.6719 112.016 25.2266 111.68 25.9531C111.352 26.6719 111.188 27.5312 111.188 28.5312C111.188 29.5469 111.352 30.4219 111.68 31.1562C112.016 31.8828 112.477 32.4414 113.062 32.8320C113.656 33.2227 114.328 33.4180 115.078 33.4180C115.625 33.4180 116.113 33.3164 116.543 33.1133C116.973 32.9102 117.328 32.6289 117.609 32.2695C117.898 31.9023 118.094 31.4805 118.195 31.0039H119.523C119.391 31.7695 119.121 32.4414 118.715 33.0195C118.309 33.5898 117.797 34.0391 117.18 34.3672C116.57 34.6953 115.812 34.8594 114.906 34.8594L114.75 35.2344Z" fill="white"/>
  
  <path d="M127.289 35.2344C126.086 35.2344 125.047 34.9688 124.172 34.4375C123.297 33.8984 122.633 33.1445 122.18 32.1758C121.727 31.1992 121.5 30.0703 121.5 28.7891C121.5 27.5078 121.727 26.3789 122.18 25.4023C122.633 24.4258 123.297 23.6719 124.172 23.1406C125.047 22.6016 126.086 22.332 127.289 22.332C128.492 22.332 129.531 22.6016 130.406 23.1406C131.289 23.6719 131.957 24.4258 132.41 25.4023C132.863 26.3789 133.09 27.5078 133.09 28.7891C133.09 30.0703 132.863 31.1992 132.41 32.1758C131.957 33.1445 131.289 33.8984 130.406 34.4375C129.531 34.9688 128.492 35.2344 127.289 35.2344ZM127.289 33.8281C128.25 33.8281 129.066 33.5859 129.738 33.1016C130.41 32.6172 130.922 31.9492 131.273 31.0977C131.625 30.2383 131.801 29.2656 131.801 28.1797C131.801 27.0938 131.625 26.125 131.273 25.2734C130.922 24.4141 130.41 23.7422 129.738 23.2578C129.066 22.7734 128.25 22.5312 127.289 22.5312C126.328 22.5312 125.512 22.7734 124.84 23.2578C124.168 23.7422 123.656 24.4141 123.305 25.2734C122.953 26.125 122.777 27.0938 122.777 28.1797C122.777 29.2656 122.953 30.2383 123.305 31.0977C123.656 31.9492 124.168 32.6172 124.84 33.1016C125.512 33.5859 126.328 33.8281 127.289 33.8281Z" fill="white"/>
  
  <path d="M135.758 35V22.3281H137.059V35H135.758ZM136.414 19.7891C136.102 19.7891 135.836 19.6836 135.617 19.4727C135.406 19.2617 135.301 19.0039 135.301 18.6992C135.301 18.3945 135.406 18.1367 135.617 17.9258C135.836 17.7148 136.102 17.6094 136.414 17.6094C136.727 17.6094 136.988 17.7148 137.199 17.9258C137.418 18.1367 137.527 18.3945 137.527 18.6992C137.527 19.0039 137.418 19.2617 137.199 19.4727C136.988 19.6836 136.727 19.7891 136.414 19.7891Z" fill="white"/>
  
  <!-- Text: Persona -->
  <path d="M146.195 35.2344C145.047 35.2344 144.035 34.9727 143.16 34.4492C142.285 33.918 141.602 33.1719 141.113 32.2109C140.633 31.25 140.395 30.1289 140.395 28.8477C140.395 27.5664 140.637 26.4414 141.125 25.4727C141.613 24.5039 142.297 23.7539 143.18 23.2227C144.07 22.6914 145.086 22.4258 146.227 22.4258C147.039 22.4258 147.781 22.5742 148.453 22.8711C149.133 23.1602 149.719 23.5859 150.211 24.1484C150.703 24.7109 151.059 25.3945 151.277 26.1992H149.977C149.805 25.6367 149.531 25.1641 149.156 24.7812C148.789 24.3906 148.344 24.0938 147.82 23.8906C147.305 23.6797 146.746 23.5742 146.145 23.5742C145.199 23.5742 144.367 23.7852 143.648 24.207C142.93 24.6211 142.371 25.2109 141.973 25.9766C141.574 26.7344 141.375 27.6328 141.375 28.6719C141.375 29.7266 141.57 30.6406 141.961 31.4141C142.359 32.1875 142.918 32.7852 143.637 33.207C144.355 33.6211 145.188 33.8281 146.133 33.8281C147 33.8281 147.754 33.6602 148.395 33.3242C149.035 32.9805 149.52 32.5 149.848 31.8828C150.184 31.2578 150.352 30.5312 150.352 29.7031V29.1484H146.074V28.0469H151.617V35H150.629L150.469 33.125C150.109 33.7109 149.605 34.1875 148.957 34.5547C148.316 35.0078 147.508 35.2344 146.531 35.2344H146.195Z" fill="white"/>
  
  <path d="M158.613 35.2344C157.809 35.2344 157.078 35.0859 156.421 34.7891C155.773 34.4844 155.262 34.0391 154.887 33.4531C154.52 32.8672 154.336 32.1445 154.336 31.2852C154.336 30.5352 154.477 29.9141 154.758 29.4219C155.039 28.9219 155.41 28.5234 155.871 28.2266C156.332 27.9297 156.84 27.7031 157.395 27.5469C157.957 27.3828 158.523 27.2617 159.094 27.1836C159.844 27.082 160.449 27.0039 160.91 26.9492C161.379 26.8867 161.715 26.7891 161.918 26.6562C162.129 26.5234 162.234 26.3047 162.234 26C162.234 25.5078 162.055 25.1211 161.695 24.8398C161.336 24.5508 160.805 24.4062 160.102 24.4062C159.375 24.4062 158.793 24.5469 158.355 24.8281C157.918 25.1094 157.621 25.4414 157.465 25.8242L156.199 25.3867C156.418 24.8008 156.746 24.332 157.184 23.9805C157.629 23.6211 158.125 23.3633 158.672 23.207C159.227 23.043 159.773 22.9609 160.312 22.9609C160.641 22.9609 161.031 22.9961 161.484 23.0664C161.945 23.1289 162.391 23.2734 162.82 23.5C163.25 23.7266 163.605 24.0664 163.887 24.5195C164.168 24.9648 164.309 25.5703 164.309 26.3359V35H163.016V33.5859H162.934C162.824 33.8359 162.637 34.0938 162.371 34.3594C162.105 34.625 161.75 34.8438 161.305 35.0156C160.859 35.1797 160.32 35.2617 159.688 35.2617L158.613 35.2344ZM158.965 33.8281C159.559 33.8281 160.07 33.7188 160.5 33.5C160.93 33.2812 161.258 32.9922 161.484 32.6328C161.711 32.2734 161.824 31.8945 161.824 31.4961V27.9297C161.73 28.0078 161.57 28.082 161.344 28.1523C161.125 28.2148 160.875 28.2734 160.594 28.3281C160.32 28.375 160.051 28.4219 159.785 28.4688C159.527 28.5078 159.301 28.5469 159.105 28.5859C158.664 28.6641 158.266 28.7773 157.91 28.9258C157.555 29.0664 157.273 29.2734 157.066 29.5469C156.867 29.8125 156.766 30.1719 156.766 30.625C156.766 31.25 156.984 31.7188 157.418 32.0312C157.859 32.3438 158.363 33.8281 158.965 33.8281Z" fill="white"/>
  
  <path d="M167.184 35V22.3281H169.176V24.1406H169.258C169.449 23.5391 169.812 23.0625 170.348 22.7109C170.883 22.3516 171.5 22.1719 172.199 22.1719C172.301 22.1719 172.43 22.1719 172.586 22.1719C172.742 22.1719 172.863 22.1758 172.949 22.1836V24.2812C172.902 24.2656 172.789 24.2461 172.609 24.2227C172.437 24.1914 172.258 24.1758 172.07 24.1758C171.5 24.1758 171 24.293 170.57 24.5273C170.148 24.7539 169.82 25.0742 169.586 25.4883C169.352 25.8945 169.234 26.3594 169.234 26.8828V35H167.184Z" fill="white"/>
  
  <path d="M182.172 28.4297H174.609C174.656 29.2891 174.84 30.0391 175.16 30.6797C175.487 31.3125 175.93 31.8047 176.484 32.1562C177.039 32.5 177.668 32.6719 178.371 32.6719C179.098 32.6719 179.727 32.5078 180.258 32.1797C180.797 31.8438 181.184 31.3984 181.418 30.8438L183.129 31.5391C182.793 32.3359 182.25 33.0039 181.5 33.543C180.758 34.0742 179.801 34.3398 178.629 34.3398C177.457 34.3398 176.43 34.0859 175.547 33.5781C174.664 33.0625 173.977 32.3281 173.484 31.375C173 30.4219 172.758 29.3125 172.758 28.0469C172.758 26.7812 172.996 25.6719 173.473 24.7188C173.949 23.7656 174.629 23.0352 175.512 22.5273C176.402 22.0117 177.422 21.7539 178.57 21.7539C179.711 21.7539 180.699 22.0039 181.535 22.5039C182.371 23.0039 183.016 23.6992 183.469 24.5898C183.93 25.4805 184.16 26.5 184.16 27.6484C184.16 27.8359 184.148 28.0312 184.125 28.2344C184.109 28.4297 184.09 28.6016 184.07 28.75L182.172 28.4297ZM174.668 26.7578H182.301C182.27 25.9844 182.098 25.3203 181.785 24.7656C181.48 24.2031 181.066 23.7734 180.547 23.4766C180.027 23.1797 179.43 23.0312 178.758 23.0312C178.07 23.0312 177.461 23.1836 176.93 23.4883C176.398 23.7852 175.977 24.2148 175.664 24.7773C175.359 25.332 175.176 25.9922 175.113 26.7578H174.668Z" fill="white"/>
  
  <path d="M186.543 35V22.3281H188.535V24.1406H188.617C188.809 23.5391 189.172 23.0625 189.707 22.7109C190.242 22.3516 190.859 22.1719 191.559 22.1719C191.66 22.1719 191.789 22.1719 191.945 22.1719C192.102 22.1719 192.223 22.1758 192.309 22.1836V24.2812C192.262 24.2656 192.148 24.2461 191.969 24.2227C191.797 24.1914 191.617 24.1758 191.43 24.1758C190.859 24.1758 190.359 24.293 189.93 24.5273C189.508 24.7539 189.18 25.0742 188.945 25.4883C188.711 25.8945 188.594 26.3594 188.594 26.8828V35H186.543Z" fill="white"/>
  
  <path d="M199.691 35.2344C198.527 35.2344 197.508 34.9688 196.633 34.4375C195.758 33.8984 195.074 33.1406 194.582 32.1641C194.09 31.1797 193.844 30.0312 193.844 28.7188C193.844 27.4062 194.094 26.2617 194.594 25.2852C195.094 24.3008 195.785 23.543 196.668 23.0117C197.551 22.4805 198.574 22.2148 199.738 22.2148C200.902 22.2148 201.922 22.4805 202.797 23.0117C203.672 23.543 204.355 24.293 204.848 25.2617C205.34 26.2227 205.586 27.3477 205.586 28.6367C205.586 28.7148 205.586 28.7891 205.586 28.8594C205.586 28.9219 205.582 28.9844 205.574 29.0469H195.473V27.6484H203.98L202.82 28.1328C202.82 27.2734 202.66 26.5117 202.34 25.8477C202.027 25.1836 201.582 24.6602 201.004 24.2773C200.434 23.8945 199.754 23.7031 198.965 23.7031C198.152 23.7031 197.441 23.9023 196.832 24.3008C196.23 24.6992 195.766 25.2422 195.438 25.9297C195.109 26.6094 194.945 27.3828 194.945 28.25V28.8477C194.945 29.7383 195.125 30.5195 195.484 31.1914C195.852 31.8555 196.355 32.3672 196.996 32.7266C197.645 33.0859 198.387 33.2656 199.223 33.2656C199.879 33.2656 200.477 33.1641 201.016 32.9609C201.562 32.75 202.027 32.4297 202.41 32L203.48 33.125C203.027 33.75 202.438 34.2305 201.715 34.5664C201 35.0117 200.145 35.2344 199.152 35.2344H199.691Z" fill="white"/>
  
  <path d="M213.43 35.2344C212.242 35.2344 211.199 34.9688 210.301 34.4375C209.402 33.9062 208.699 33.1523 208.191 32.1758C207.691 31.1992 207.441 30.0703 207.441 28.7891C207.441 27.5078 207.695 26.3789 208.203 25.4023C208.711 24.4258 209.418 23.6719 210.324 23.1406C211.238 22.6016 212.281 22.332 213.453 22.332C214.625 22.332 215.664 22.6016 216.57 23.1406C217.484 23.6719 218.191 24.4258 218.691 25.4023C219.199 26.3789 219.453 27.5078 219.453 28.7891C219.453 30.0703 219.195 31.1992 218.68 32.1758C218.172 33.1445 217.461 33.8984 216.547 34.4375C215.641 34.9688 214.602 35.2344 213.43 35.2344ZM213.43 33.8281C214.391 33.8281 215.219 33.582 215.914 33.0898C216.617 32.5898 217.16 31.918 217.543 31.0742C217.926 30.2227 218.117 29.2656 218.117 28.2031C218.117 27.125 217.926 26.1602 217.543 25.3086C217.168 24.4492 216.629 23.7773 215.926 23.293C215.23 22.8008 214.406 22.5547 213.453 22.5547C212.492 22.5547 211.66 22.8008 210.957 23.293C210.262 23.7773 209.723 24.4492 209.34 25.3086C208.965 26.1602 208.777 27.125 208.777 28.2031C208.777 29.2656 208.961 30.2227 209.328 31.0742C209.703 31.918 210.242 32.5898 210.945 33.0898C211.648 33.582 212.477 33.8281 213.43 33.8281Z" fill="white"/>
  
  <path d="M221.027 35V22.3281H223.02V24.1406H223.102C223.312 23.5703 223.699 23.1133 224.262 22.7695C224.832 22.4258 225.523 22.2539 226.336 22.2539C227.164 22.2539 227.859 22.4258 228.422 22.7695C228.984 23.1133 229.418 23.5703 229.723 24.1406H229.793C230.121 23.5859 230.605 23.1328 231.246 22.7812C231.887 22.4297 232.633 22.2539 233.484 22.2539C234.57 22.2539 235.465 22.5938 236.168 23.2734C236.879 23.9453 237.234 24.9531 237.234 26.2969V35H235.184V26.4883C235.184 25.5508 234.941 24.8594 234.457 24.4141C233.973 23.9688 233.379 23.7461 232.676 23.7461C231.793 23.7461 231.117 23.9961 230.648 24.4961C230.188 24.9883 229.957 25.6211 229.957 26.3945V35H227.895V26.3359C227.895 25.5938 227.66 24.9727 227.191 24.4727C226.73 23.9648 226.121 23.7109 225.363 23.7109C224.848 23.7109 224.375 23.8437 223.945 24.1094C223.523 24.375 223.184 24.7383 222.926 25.1992C222.676 25.6523 222.551 26.1641 222.551 26.7344V35H221.027Z" fill="white"/>
  
  <!-- Sparkle effects -->
  <circle cx="195" cy="12" r="1.5" fill="white" fillOpacity="0.8"/>
  <circle cx="182" cy="9" r="1" fill="white" fillOpacity="0.6"/>
  <circle cx="168" cy="14" r="1" fill="white" fillOpacity="0.7"/>
  <circle cx="155" cy="10" r="1.2" fill="white" fillOpacity="0.5"/>
  
  <!-- Gradient definitions -->
  <defs>
    <linearGradient id="paint0_linear" x1="42" y1="0" x2="198" y2="48" gradientUnits="userSpaceOnUse">
      <stop stopColor="#9b87f5"/>
      <stop offset="1" stopColor="#7E69AB"/>
    </linearGradient>
  </defs>
</svg>
