
<svg width="240" height="48" viewBox="0 0 240 48" fill="none" xmlns="http://www.w3.org/2000/svg">
  <path d="M42 8C42 3.58172 45.5817 0 50 0H190C194.418 0 198 3.58172 198 8V40C198 44.4183 194.418 48 190 48H50C45.5817 48 42 44.4183 42 40V8Z" fill="#9b87f5" fillOpacity="0.2"/>
  <rect x="4" y="8" width="32" height="32" rx="8" fill="#9b87f5"/>
  <path d="M11 15C11 14.4477 11.4477 14 12 14H28C28.5523 14 29 14.4477 29 15V33C29 33.5523 28.5523 34 28 34H12C11.4477 34 11 33.5523 11 33V15Z" fill="#7E69AB"/>
  <path d="M20 16C16.6863 16 14 18.6863 14 22C14 24.0151 15.2109 25.7401 17 26.5768V32C17 32.5523 17.4477 33 18 33H22C22.5523 33 23 32.5523 23 32V26.5768C24.7891 25.7401 26 24.0151 26 22C26 18.6863 23.3137 16 20 16Z" fill="white"/>
  <path d="M18.5 25C18.2239 25 18 25.2239 18 25.5C18 25.7761 18.2239 26 18.5 26H21.5C21.7761 26 22 25.7761 22 25.5C22 25.2239 21.7761 25 21.5 25H18.5Z" fill="#E5DEFF"/>
  <circle cx="23" cy="21" r="1.5" fill="#1A1F2C"/>
  <circle cx="17" cy="21" r="1.5" fill="#1A1F2C"/>
  <path d="M59.0703 35V19.8281H64.8047C66.3828 19.8281 67.6953 20.125 68.7422 20.7188C69.7891 21.3125 70.5781 22.1562 71.1094 23.25C71.6406 24.3438 71.9062 25.5938 71.9062 27C71.9062 28.4062 71.6406 29.6562 71.1094 30.75C70.5781 31.8438 69.7891 32.6875 68.7422 33.2812C67.6953 33.875 66.3828 34.1719 64.8047 34.1719H60.9062V31.9375H64.7266C65.7734 31.9375 66.6172 31.75 67.2578 31.375C67.8984 31 68.375 30.4375 68.6875 29.6875C69.0078 28.9375 69.1719 28.0469 69.1719 27.0156C69.1719 25.9844 69.0078 25.0938 68.6875 24.3438C68.375 23.5938 67.8984 23.0312 67.2578 22.6562C66.6172 22.2812 65.7812 22.0938 64.75 22.0938H61.8281V35H59.0703Z" fill="#1A1F2C"/>
  <path d="M80.6094 35.2344C79.4219 35.2344 78.3828 34.9688 77.4922 34.4375C76.6016 33.8984 75.9141 33.1406 75.4297 32.1562C74.9453 31.1641 74.7031 30.0156 74.7031 28.7031C74.7031 27.3906 74.9453 26.2422 75.4297 25.25C75.9141 24.2578 76.6016 23.5 77.4922 22.9688C78.3828 22.4297 79.4219 22.1602 80.6094 22.1602C81.7969 22.1602 82.8359 22.4297 83.7266 22.9688C84.625 23.5 85.3125 24.2578 85.7891 25.25C86.2734 26.2422 86.5156 27.3906 86.5156 28.7031C86.5156 30.0156 86.2734 31.1641 85.7891 32.1562C85.3125 33.1406 84.625 33.8984 83.7266 34.4375C82.8359 34.9688 81.7969 35.2344 80.6094 35.2344ZM80.6094 32.9766C81.2813 32.9766 81.8594 32.8125 82.3438 32.4844C82.8359 32.1484 83.2188 31.6562 83.4922 31.0078C83.7656 30.3516 83.9023 29.5859 83.9023 28.7109C83.9023 27.8359 83.7656 27.0703 83.4922 26.4141C83.2188 25.7578 82.8359 25.2656 82.3438 24.9375C81.8594 24.6094 81.2813 24.4453 80.6094 24.4453C79.9375 24.4453 79.3594 24.6094 78.875 24.9375C78.3906 25.2656 78.0078 25.7578 77.7266 26.4141C77.4531 27.0703 77.3164 27.8359 77.3164 28.7109C77.3164 29.5859 77.4531 30.3516 77.7266 31.0078C78.0078 31.6562 78.3906 32.1484 78.875 32.4844C79.3594 32.8125 79.9375 32.9766 80.6094 32.9766Z" fill="#1A1F2C"/>
  <path d="M89.6562 35V22.3086H92.0938V24.375H92.2266C92.4844 23.6641 92.9062 23.1172 93.4922 22.7344C94.0781 22.3516 94.7734 22.1602 95.5781 22.1602C96.3906 22.1602 97.0781 22.3516 97.6406 22.7344C98.2109 23.1172 98.5938 23.6641 98.7891 24.375H98.9062C99.1641 23.6875 99.6328 23.1484 100.312 22.7578C101 22.3594 101.805 22.1602 102.727 22.1602C103.898 22.1602 104.82 22.5156 105.492 23.2266C106.172 23.9297 106.512 24.9688 106.512 26.3438V35H103.945V26.8281C103.945 26.0234 103.734 25.4375 103.312 25.0703C102.891 24.7031 102.383 24.5195 101.789 24.5195C101.078 24.5195 100.523 24.7422 100.125 25.1875C99.7266 25.625 99.5273 26.1953 99.5273 26.8984V35H96.9766V26.6953C96.9766 26.0391 96.7734 25.5078 96.3672 25.1016C95.9609 24.6953 95.4531 24.4922 94.8438 24.4922C94.4219 24.4922 94.0312 24.6055 93.6719 24.832C93.3203 25.0508 93.0391 25.3594 92.8281 25.7578C92.625 26.1484 92.5234 26.6016 92.5234 27.1172V35H89.6562Z" fill="#1A1F2C"/>
  <path d="M114.75 35.2344C113.578 35.2344 112.547 34.9766 111.656 34.4609C110.766 33.9375 110.066 33.1875 109.555 32.2109C109.055 31.2266 108.805 30.0625 108.805 28.7188C108.805 27.3906 109.059 26.2344 109.566 25.25C110.082 24.2578 110.781 23.5078 111.664 23C112.547 22.4844 113.555 22.2266 114.688 22.2266C115.5 22.2266 116.238 22.375 116.902 22.6719C117.566 22.9609 118.109 23.3594 118.531 23.8672C118.961 24.375 119.227 24.9609 119.328 25.625H118.078C117.93 25.1016 117.594 24.6523 117.07 24.2773C116.555 23.8945 115.891 23.7031 115.078 23.7031C114.328 23.7031 113.656 23.8984 113.062 24.2891C112.477 24.6719 112.016 25.2266 111.68 25.9531C111.352 26.6719 111.188 27.5312 111.188 28.5312C111.188 29.5469 111.352 30.4219 111.68 31.1562C112.016 31.8828 112.477 32.4414 113.062 32.8320C113.656 33.2227 114.328 33.4180 115.078 33.4180C115.625 33.4180 116.113 33.3164 116.543 33.1133C116.973 32.9102 117.328 32.6289 117.609 32.2695C117.898 31.9023 118.094 31.4805 118.195 31.0039H119.523C119.391 31.7695 119.121 32.4414 118.715 33.0195C118.309 33.5898 117.797 34.0391 117.18 34.3672C116.57 34.6953 115.812 34.8594 114.906 34.8594L114.75 35.2344Z" fill="#1A1F2C"/>
  <path d="M127.289 35.2344C126.086 35.2344 125.047 34.9688 124.172 34.4375C123.297 33.8984 122.633 33.1445 122.18 32.1758C121.727 31.1992 121.5 30.0703 121.5 28.7891C121.5 27.5078 121.727 26.3789 122.18 25.4023C122.633 24.4258 123.297 23.6719 124.172 23.1406C125.047 22.6016 126.086 22.332 127.289 22.332C128.492 22.332 129.531 22.6016 130.406 23.1406C131.289 23.6719 131.957 24.4258 132.41 25.4023C132.863 26.3789 133.09 27.5078 133.09 28.7891C133.09 30.0703 132.863 31.1992 132.41 32.1758C131.957 33.1445 131.289 33.8984 130.406 34.4375C129.531 34.9688 128.492 35.2344 127.289 35.2344ZM127.289 33.8281C128.25 33.8281 129.066 33.5859 129.738 33.1016C130.41 32.6172 130.922 31.9492 131.273 31.0977C131.625 30.2383 131.801 29.2656 131.801 28.1797C131.801 27.0938 131.625 26.125 131.273 25.2734C130.922 24.4141 130.41 23.7422 129.738 23.2578C129.066 22.7734 128.25 22.5312 127.289 22.5312C126.328 22.5312 125.512 22.7734 124.84 23.2578C124.168 23.7422 123.656 24.4141 123.305 25.2734C122.953 26.125 122.777 27.0938 122.777 28.1797C122.777 29.2656 122.953 30.2383 123.305 31.0977C123.656 31.9492 124.168 32.6172 124.84 33.1016C125.512 33.5859 126.328 33.8281 127.289 33.8281Z" fill="#1A1F2C"/>
  <path d="M135.258 35V22.3281H136.559V35H135.258ZM135.914 19.7891C135.602 19.7891 135.336 19.6836 135.117 19.4727C134.906 19.2617 134.801 19.0039 134.801 18.6992C134.801 18.3945 134.906 18.1367 135.117 17.9258C135.336 17.7148 135.602 17.6094 135.914 17.6094C136.227 17.6094 136.488 17.7148 136.699 17.9258C136.918 18.1367 137.027 18.3945 137.027 18.6992C137.027 19.0039 136.918 19.2617 136.699 19.4727C136.488 19.6836 136.227 19.7891 135.914 19.7891Z" fill="#1A1F2C"/>
  <path d="M145.695 35.2344C144.547 35.2344 143.535 34.9727 142.66 34.4492C141.785 33.918 141.102 33.1719 140.613 32.2109C140.133 31.25 139.895 30.1289 139.895 28.8477C139.895 27.5664 140.137 26.4414 140.625 25.4727C141.113 24.5039 141.797 23.7539 142.68 23.2227C143.57 22.6914 144.586 22.4258 145.727 22.4258C146.539 22.4258 147.281 22.5742 147.953 22.8711C148.633 23.1602 149.219 23.5859 149.711 24.1484C150.203 24.7109 150.559 25.3945 150.777 26.1992H149.477C149.305 25.6367 149.031 25.1641 148.656 24.7812C148.289 24.3906 147.844 24.0938 147.32 23.8906C146.805 23.6797 146.246 23.5742 145.645 23.5742C144.699 23.5742 143.867 23.7852 143.148 24.207C142.43 24.6211 141.871 25.2109 141.473 25.9766C141.074 26.7344 140.875 27.6328 140.875 28.6719C140.875 29.7266 141.07 30.6406 141.461 31.4141C141.859 32.1875 142.418 32.7852 143.137 33.207C143.855 33.6211 144.688 33.8281 145.633 33.8281C146.5 33.8281 147.254 33.6602 147.895 33.3242C148.535 32.9805 149.02 32.5 149.348 31.8828C149.684 31.2578 149.852 30.5312 149.852 29.7031V29.1484H145.574V28.0469H151.117V35H150.129L149.969 33.125C149.609 33.7109 149.105 34.1875 148.457 34.5547C147.816 35.0078 147.008 35.2344 146.031 35.2344H145.695Z" fill="#1A1F2C"/>
  <path d="M158.113 35.2344C157.309 35.2344 156.578 35.0859 155.921 34.7891C155.273 34.4844 154.762 34.0391 154.387 33.4531C154.02 32.8672 153.836 32.1445 153.836 31.2852C153.836 30.5352 153.977 29.9141 154.258 29.4219C154.539 28.9219 154.91 28.5234 155.371 28.2266C155.832 27.9297 156.34 27.7031 156.895 27.5469C157.457 27.3828 158.023 27.2617 158.594 27.1836C159.344 27.082 159.949 27.0039 160.41 26.9492C160.879 26.8867 161.215 26.7891 161.418 26.6562C161.629 26.5234 161.734 26.3047 161.734 26C161.734 25.5078 161.555 25.1211 161.195 24.8398C160.836 24.5508 160.305 24.4062 159.602 24.4062C158.875 24.4062 158.293 24.5469 157.855 24.8281C157.418 25.1094 157.121 25.4414 156.965 25.8242L155.699 25.3867C155.918 24.8008 156.246 24.332 156.684 23.9805C157.129 23.6211 157.625 23.3633 158.172 23.207C158.727 23.043 159.273 22.9609 159.812 22.9609C160.141 22.9609 160.531 22.9961 160.984 23.0664C161.445 23.1289 161.891 23.2734 162.32 23.5C162.75 23.7266 163.105 24.0664 163.387 24.5195C163.668 24.9648 163.809 25.5703 163.809 26.3359V35H161.816V33.5859H161.734C161.625 33.8359 161.438 34.0938 161.172 34.3594C160.906 34.625 160.551 34.8438 160.105 35.0156C159.66 35.1797 159.121 35.2617 158.488 35.2617L158.113 35.2344ZM158.465 33.8281C159.059 33.8281 159.57 33.7188 160 33.5C160.43 33.2812 160.758 32.9922 160.984 32.6328C161.211 32.2734 161.324 31.8945 161.324 31.4961V27.9297C161.23 28.0078 161.07 28.082 160.844 28.1523C160.625 28.2148 160.375 28.2734 160.094 28.3281C159.82 28.375 159.551 28.4219 159.285 28.4688C159.027 28.5078 158.801 28.5469 158.605 28.5859C158.164 28.6641 157.766 28.7773 157.41 28.9258C157.055 29.0664 156.773 29.2734 156.566 29.5469C156.367 29.8125 156.266 30.1719 156.266 30.625C156.266 31.25 156.484 31.7188 156.918 32.0312C157.359 32.3438 157.863 33.8281 158.465 33.8281Z" fill="#1A1F2C"/>
  <path d="M167.684 35V22.3281H169.676V24.1406H169.758C169.949 23.5391 170.312 23.0625 170.848 22.7109C171.383 22.3516 172 22.1719 172.699 22.1719C172.801 22.1719 172.93 22.1719 173.086 22.1719C173.242 22.1719 173.363 22.1758 173.449 22.1836V24.2812C173.402 24.2656 173.289 24.2461 173.109 24.2227C172.938 24.1914 172.758 24.1758 172.57 24.1758C172 24.1758 171.5 24.293 171.07 24.5273C170.648 24.7539 170.32 25.0742 170.086 25.4883C169.852 25.8945 169.734 26.3594 169.734 26.8828V35H167.684Z" fill="#1A1F2C"/>
  <path d="M182.672 28.4297H175.109C175.156 29.2891 175.34 30.0391 175.66 30.6797C175.988 31.3125 176.43 31.8047 176.984 32.1562C177.539 32.5 178.168 32.6719 178.871 32.6719C179.598 32.6719 180.227 32.5078 180.758 32.1797C181.297 31.8438 181.684 31.3984 181.918 30.8438L183.629 31.5391C183.293 32.3359 182.75 33.0039 182 33.543C181.258 34.0742 180.301 34.3398 179.129 34.3398C177.957 34.3398 176.93 34.0859 176.047 33.5781C175.164 33.0625 174.477 32.3281 173.984 31.375C173.5 30.4219 173.258 29.3125 173.258 28.0469C173.258 26.7812 173.496 25.6719 173.973 24.7188C174.449 23.7656 175.129 23.0352 176.012 22.5273C176.902 22.0117 177.922 21.7539 179.07 21.7539C180.211 21.7539 181.199 22.0039 182.035 22.5039C182.871 23.0039 183.516 23.6992 183.969 24.5898C184.43 25.4805 184.66 26.5 184.66 27.6484C184.66 27.8359 184.648 28.0312 184.625 28.2344C184.609 28.4297 184.59 28.6016 184.57 28.75L182.672 28.4297ZM175.168 26.7578H182.801C182.77 25.9844 182.598 25.3203 182.285 24.7656C181.98 24.2031 181.566 23.7734 181.047 23.4766C180.527 23.1797 179.93 23.0312 179.258 23.0312C178.57 23.0312 177.961 23.1836 177.43 23.4883C176.898 23.7852 176.477 24.2148 176.164 24.7773C175.859 25.332 175.676 25.9922 175.613 26.7578H175.168Z" fill="#1A1F2C"/>
  <path d="M187.043 35V22.3281H189.035V24.1406H189.117C189.309 23.5391 189.672 23.0625 190.207 22.7109C190.742 22.3516 191.359 22.1719 192.059 22.1719C192.16 22.1719 192.289 22.1719 192.445 22.1719C192.602 22.1719 192.723 22.1758 192.809 22.1836V24.2812C192.762 24.2656 192.648 24.2461 192.469 24.2227C192.297 24.1914 192.117 24.1758 191.93 24.1758C191.359 24.1758 190.859 24.293 190.43 24.5273C190.008 24.7539 189.68 25.0742 189.445 25.4883C189.211 25.8945 189.094 26.3594 189.094 26.8828V35H187.043Z" fill="#1A1F2C"/>
  <path d="M200.191 35.2344C199.027 35.2344 198.008 34.9688 197.133 34.4375C196.258 33.8984 195.574 33.1406 195.082 32.1641C194.59 31.1797 194.344 30.0312 194.344 28.7188C194.344 27.4062 194.594 26.2617 195.094 25.2852C195.594 24.3008 196.285 23.543 197.168 23.0117C198.051 22.4805 199.074 22.2148 200.238 22.2148C201.402 22.2148 202.422 22.4805 203.297 23.0117C204.172 23.543 204.855 24.293 205.348 25.2617C205.84 26.2227 206.086 27.3477 206.086 28.6367C206.086 28.7148 206.086 28.7891 206.086 28.8594C206.086 28.9219 206.082 28.9844 206.074 29.0469H195.973V27.6484H204.48L203.32 28.1328C203.32 27.2734 203.16 26.5117 202.84 25.8477C202.527 25.1836 202.082 24.6602 201.504 24.2773C200.934 23.8945 200.254 23.7031 199.465 23.7031C198.652 23.7031 197.941 23.9023 197.332 24.3008C196.73 24.6992 196.266 25.2422 195.938 25.9297C195.609 26.6094 195.445 27.3828 195.445 28.25V28.8477C195.445 29.7383 195.625 30.5195 195.984 31.1914C196.352 31.8555 196.855 32.3672 197.496 32.7266C198.145 33.0859 198.887 33.2656 199.723 33.2656C200.379 33.2656 200.977 33.1641 201.516 32.9609C202.062 32.75 202.527 32.4297 202.91 32L203.98 33.125C203.527 33.75 202.938 34.2305 202.215 34.5664C201.5 35.0117 200.645 35.2344 199.652 35.2344H200.191Z" fill="#1A1F2C"/>
  <path d="M213.43 35.2344C212.242 35.2344 211.199 34.9688 210.301 34.4375C209.402 33.9062 208.699 33.1523 208.191 32.1758C207.691 31.1992 207.441 30.0703 207.441 28.7891C207.441 27.5078 207.695 26.3789 208.203 25.4023C208.711 24.4258 209.418 23.6719 210.324 23.1406C211.238 22.6016 212.281 22.332 213.453 22.332C214.625 22.332 215.664 22.6016 216.57 23.1406C217.484 23.6719 218.191 24.4258 218.691 25.4023C219.199 26.3789 219.453 27.5078 219.453 28.7891C219.453 30.0703 219.195 31.1992 218.68 32.1758C218.172 33.1445 217.461 33.8984 216.547 34.4375C215.641 34.9688 214.602 35.2344 213.43 35.2344ZM213.43 33.8281C214.391 33.8281 215.219 33.582 215.914 33.0898C216.617 32.5898 217.16 31.918 217.543 31.0742C217.926 30.2227 218.117 29.2656 218.117 28.2031C218.117 27.125 217.926 26.1602 217.543 25.3086C217.168 24.4492 216.629 23.7773 215.926 23.293C215.23 22.8008 214.406 22.5547 213.453 22.5547C212.492 22.5547 211.66 22.8008 210.957 23.293C210.262 23.7773 209.723 24.4492 209.34 25.3086C208.965 26.1602 208.777 27.125 208.777 28.2031C208.777 29.2656 208.961 30.2227 209.328 31.0742C209.703 31.918 210.242 32.5898 210.945 33.0898C211.648 33.582 212.477 33.8281 213.43 33.8281Z" fill="#1A1F2C"/>
  <path d="M221.527 35V22.3281H223.52V24.1406H223.602C223.812 23.5703 224.199 23.1133 224.762 22.7695C225.332 22.4258 226.023 22.2539 226.836 22.2539C227.664 22.2539 228.359 22.4258 228.922 22.7695C229.484 23.1133 229.918 23.5703 230.223 24.1406H230.293C230.621 23.5859 231.105 23.1328 231.746 22.7812C232.387 22.4297 233.133 22.2539 233.984 22.2539C235.07 22.2539 235.965 22.5938 236.668 23.2734C237.379 23.9453 237.734 24.9531 237.734 26.2969V35H235.684V26.4883C235.684 25.5508 235.441 24.8594 234.957 24.4141C234.473 23.9688 233.879 23.7461 233.176 23.7461C232.293 23.7461 231.617 23.9961 231.148 24.4961C230.688 24.9883 230.457 25.6211 230.457 26.3945V35H228.395V26.3359C228.395 25.5938 228.16 24.9727 227.691 24.4727C227.23 23.9648 226.621 23.7109 225.863 23.7109C225.348 23.7109 224.875 23.8437 224.445 24.1094C224.023 24.375 223.684 24.7383 223.426 25.1992C223.176 25.6523 223.051 26.1641 223.051 26.7344V35H221.527Z" fill="#1A1F2C"/>
</svg>
